<?xml version="1.0" encoding="utf-8"?>
<!-- Generator: Adobe Illustrator 22.0.1, SVG Export Plug-In . SVG Version: 6.00 Build 0)  -->
<svg version="1.1" id="layer3" xmlns="http://www.w3.org/2000/svg" xmlns:xlink="http://www.w3.org/1999/xlink" x="0px" y="0px"
	 viewBox="0 0 335.3 378.9" style="enable-background:new 0 0 335.3 378.9;" xml:space="preserve">
<style type="text/css">
	.st0{fill:#FFFFFF;}
	.st1{opacity:0.66;fill:#A0C1DB;}
	.st2{fill:#44677F;}
	.st3{fill:#7B9FC0;}
	.st4{fill:#432918;}
	.st5{fill:#432943;}
</style>
<path class="st0" d="M288.4,37c-10-2.5-20.4-2.9-30.5-1.2c8.3-4.3,15.8-10.4,21.6-17.8c0.3-0.3,0.3-1-0.3-1.1
	c-12.2-1.7-25,0-36.1,5.3c3.3-2.7,6.5-5.4,9.4-8.4c4-4.1,7.6-8.5,10.9-13.1c0.3-0.5-0.3-0.9-0.7-0.6C262.5,0,262.4,0,262.2,0
	c-17.1,2.7-33.8,7.2-49.9,13.5c-16,6.2-31.4,14-45.7,23.5c-13.5,8.9-26.4,20.5-31.3,36.5c-5.1,16.8,2.5,33.7,1.5,50.7
	c-0.5,8.9-4.2,17-8.7,24.6c-3.7,6.3-8.1,13.6-15,16.8c-1.4,0.6-2.8,1.1-4.2,1.3c-0.3-0.3-0.8-0.3-1,0.1c-0.1,0-0.2,0-0.2,0
	c-0.3,0-0.3,0.5,0,0.5c0,0,0.1,0,0.1,0c-0.4,3.4,1.1,6.5,3.6,8.8c3,2.7,6.9,3.7,10.8,3.9c4.5,0.2,9.2-0.5,13.7-0.9
	c4.3-0.4,8.7-0.9,13-1.5c17.3-2.3,34.7-5.9,50.6-13.4c16.1-7.6,29.6-19.4,41.4-32.5c11.2-12.5,20.9-26.4,28.7-41.3
	c7.8-14.8,13.8-30.6,17.7-46.9c0.5-2,0.9-4,1.4-6.1C288.8,37.4,288.7,37.1,288.4,37z"/>
<path class="st1" d="M205.9,17.3c2.2-1,4.3-1.9,6.5-2.8c-10.2,3.8-20,8.4-29.1,14C190.6,24.4,198.2,20.7,205.9,17.3z"/>
<path class="st1" d="M288.4,37c-10-2.5-20.4-2.9-30.5-1.2c8.3-4.3,15.8-10.4,21.6-17.8c0.3-0.3,0.3-1-0.3-1.1
	c-12.2-1.7-25,0-36.1,5.3c3.3-2.7,6.5-5.4,9.4-8.4c2.5-2.5,4.8-5.2,6.9-7.9c-3.6,0.8-7.2,1.4-10.4,2.4c-12.3,3.7-24.5,8.4-36.3,13.4
	c-10.8,4.6-21.3,9.9-31.4,15.8c-8.2,4.8-17,10.2-23.1,17.8c0.3,0.3,0.5,0.5,0.8,0.8c1.9,0.4,3.7,1.3,5,3c1.4,1.8,1.7,4.1,0.6,6.1
	c-0.6,1.1-1.5,1.9-2.6,2.6c0,0,0,0,0,0.1c1,1.4,0.3,3.9-1.2,4.6c-1.1,0.5-2.1,1-3.1,1.3c0,2.8-1.4,5.1-3.9,6
	c-0.2,2.3-1.2,4.4-2.9,6.1c3.2,6.3,3.6,15.6-1.7,20c4.4,23.6-13,45.9-31.7,58.3c-1,0.6-1.9,0.7-2.7,0.4c-0.5,0.3-1,0.6-1.6,0.9
	c-1.4,0.6-2.8,1.1-4.2,1.3c-0.3-0.3-0.8-0.3-1,0.1c-0.1,0-0.2,0-0.2,0c-0.3,0-0.3,0.5,0,0.5c0,0,0.1,0,0.1,0
	c-0.4,3.4,1.1,6.5,3.6,8.8c3,2.7,6.9,3.7,10.8,3.9c4.5,0.2,9.2-0.5,13.7-0.9c4.3-0.4,8.7-0.9,13-1.5c17.3-2.3,34.7-5.9,50.6-13.4
	c16.1-7.6,29.6-19.4,41.4-32.5c11.2-12.5,20.9-26.4,28.7-41.3c7.8-14.8,13.8-30.6,17.7-46.9c0.5-2,0.9-4,1.4-6.1
	C288.8,37.4,288.7,37.1,288.4,37z"/>
<path class="st2" d="M288.4,37c-10-2.5-20.4-2.9-30.5-1.2c8.3-4.3,15.8-10.4,21.6-17.8c0.3-0.3,0.3-1-0.3-1.1
	c-12.2-1.7-25,0-36.1,5.3c3.3-2.7,6.5-5.4,9.4-8.4c4-4.1,7.6-8.5,10.9-13.1c0.3-0.5-0.3-0.9-0.7-0.6C262.5,0,262.4,0,262.2,0
	c-17.1,2.7-33.8,7.2-49.9,13.5c-16,6.2-31.4,14-45.7,23.5c-13.5,8.9-26.4,20.5-31.3,36.5c-5.1,16.8,2.5,33.7,1.5,50.7
	c-0.5,8.9-4.2,17-8.7,24.6c-3.7,6.3-8.1,13.6-15,16.8c-1.4,0.6-2.8,1.1-4.2,1.3c-0.3-0.3-0.8-0.3-1,0.1c-0.1,0-0.2,0-0.2,0
	c-0.3,0-0.3,0.5,0,0.5c0,0,0.1,0,0.1,0c-0.4,3.4,1.1,6.5,3.6,8.8c3,2.7,6.9,3.7,10.8,3.9c4.5,0.2,9.2-0.5,13.7-0.9
	c4.3-0.4,8.7-0.9,13-1.5c17.3-2.3,34.7-5.9,50.6-13.4c16.1-7.6,29.6-19.4,41.4-32.5c11.2-12.5,20.9-26.4,28.7-41.3
	c7.8-14.8,13.8-30.6,17.7-46.9c0.5-2,0.9-4,1.4-6.1C288.8,37.4,288.7,37.1,288.4,37z M271.9,83.6c-7.1,14.7-15.9,28.5-26.2,41.1
	c-10.8,13.1-23.2,25.4-37.9,34.1c-14.7,8.7-31.4,13.4-48.1,16.3c-8.5,1.4-17,2.4-25.6,3.3c-7.8,0.7-18.8,2.7-23.7-5.3
	c-1-1.7-1.5-3.5-1.1-5.5c0,0,0,0,0-0.1c6.4-0.6,11.3-5.5,15-10.5c2.4-3.3,4.5-6.8,6.5-10.3c2.1-3.7,3.9-7.5,5.2-11.5
	c2.7-8.2,2.5-16.9,1.4-25.4c-1.1-8.6-3-17.2-2.6-25.9c0.8-17.5,12.6-31.7,26.2-41.8c13.8-10.3,29.5-18.5,45.4-25.2
	c16-6.7,32.7-11.6,49.8-14.8c1.9-0.3,3.7-0.7,5.6-1c-3.1,4.2-6.6,8.2-10.3,12c-4,4.1-8.1,8-12.7,11.3c-0.5,0.3-0.1,1.1,0.5,0.8
	c11.9-6.1,25.1-8.9,38.4-7.2c-6.6,8-15,14.5-24.5,18.7c-0.6,0.3-0.2,1.2,0.4,1.1c11.1-2.6,22.7-2.5,33.9,0.2
	C284.1,53.7,278.9,69.1,271.9,83.6z"/>
<path class="st0" d="M335,292.6c-24-15.2-50.7-25.9-78.6-31.3c-3.9-0.7-7.8-1.4-11.7-1.9c-3.7-0.5-7.6-1.2-11.4-1.1
	c1.8-7.7-0.3-15.3-4.3-21.9c1.5,1.4,3,2.7,4.7,3.9c2.2,1.5,4.5,2.9,6.9,4c2.3,1.1,4.9,2.3,7.4,2.6c0.4,0.1,0.5-0.4,0.4-0.7
	c0,0,0-0.1,0-0.2c0-3.1-0.6-6.3-2.2-9c4.1,2,8.6,3.2,13.2,3.5c0,0.1-0.1,0.2-0.1,0.3c-0.2,0.6,0.8,0.8,0.9,0.3c1-3.8,2-7.7,1.4-11.7
	c-0.5-3.7-1.9-7.3-3.4-10.7c-1.3-3.1-2.9-6.1-5.1-8.7c0.7,0.4,1.3,0.7,2,1.1c1.7,0.9,3.5,1.6,5.3,2.3c1.9,0.7,4,1.1,5.9,1.9
	c0.3,0.1,0.7-0.1,0.7-0.4c1.3-7.4,0.8-15.2-3-21.9c-1.7-3-4-5.4-6.6-7.5c-2.3-1.8-4.6-3.5-6.3-5.9c7.7,2.2,16,1.8,23.5-0.8
	c0.3-0.1,0.4-0.3,0.3-0.6c-1.3-8.1-5.1-15.6-10.8-21.4c3.7-0.9,7.4-1.8,11.1-2.7c0.5-0.1,0.6-0.8,0.1-1.1
	c-5.1-3.1-10.9-4.6-16.8-4.7c11.7-4.5,23-11.3,30-22c0.2-0.3-0.1-0.7-0.4-0.6c-1.7,0.5-3.4,0.8-5.2,1.1c8.2-4.2,15.1-10.9,19.5-19
	c0.2-0.3-0.1-0.6-0.4-0.5c-2.1,0.3-4.3,0.7-6.4,1.2c8.1-4.8,14.5-12.1,18.2-20.9c0.1-0.3,0-0.7-0.4-0.7c-3,0.1-6,0.5-9,1.2
	c-0.9,0.2-1.9,0.4-2.8,0.7c0.8-0.4,1.5-0.8,2.3-1.3c5.9-3.6,11.4-7.9,15.7-13.2c2.4-2.9,4.4-6.2,5.9-9.6c0.2-0.5,0-0.9-0.6-1
	c-4.3-0.5-8.7-0.5-12.9,0.3c0.6-0.3,1.1-0.5,1.7-0.8c6.9-3.3,13.5-7.3,19.5-12.1c0.3-0.3,0.2-0.9-0.1-1c-6.2-2.8-12.9-4.1-19.7-4.4
	c-4.8-0.2-9.8,0.1-14.6,0.9c1.7-0.8,3.4-1.5,5.1-2.4c3.5-1.7,6.9-3.7,10-5.9c2.9-2,6.2-4.3,8.2-7.3c0.2-0.3-0.2-0.6-0.4-0.5
	c-0.1-0.2-0.3-0.4-0.5-0.4c-2-0.1-4.2,0.2-6.2,0.4c-2.1,0.2-4.1,0.4-6.2,0.6c-4.1,0.5-8.2,1.1-12.2,1.8c-7.2,1.2-14.7,2.7-21.7,5
	c-10.2,2.5-20.3,5.5-30.1,8.9c-9.8,3.4-19.4,7.2-28.8,11.4c-9.1,4.1-17.9,8.9-25.8,15c-4,3.1-7.8,6.6-11.1,10.5
	c-0.3,0.3-0.5,0.6-0.8,1c-2.9,2.8-4.9,6.1-6.5,9.7c-0.3,0.6-0.6,1.2-0.8,1.8c0,0,0,0.1,0,0.1c-1.5,4-2.5,8.3-3.3,12.4
	c-1.9,8.9-4.1,17.5-8.2,25.7c-7.9,15.6-20.9,28.4-37.5,34.2c-0.9,0.3-1.8,0.6-2.7,0.9c0-0.2-0.1-0.4-0.1-0.6
	c-0.2-0.7-0.3-1.5-0.4-2.2c-0.1-0.8-0.2-1.7-0.3-2.5c0-0.6-0.1-1.2-0.1-1.7c0-1.8,0-3.6,0-5.4c0.1-0.1,0.1-0.2,0.1-0.3
	c0.6-8.4,5.6-15.6,9.5-22.8c4.2-7.7,7.5-16,9.6-24.5c3.9-15.6,3.8-34-7.8-46.5c-5.5-6-13.2-9.4-21-11.4c0.1,0,0.2,0,0.2-0.1
	c0.4-0.2,0.5-0.8,0-0.9C95.7,47,81,54.5,73.1,65.4c-2.4,3.4-4.3,7.2-6.2,10.9c-0.8,1.7-1.7,3.4-2.1,5.3c-0.1,0.4-0.1,0.9,0.1,1.2
	c0.2,0.3,0.5,0.4,0.9,0.6c4.6,2,8.9,4.8,12.5,8.2c2.9,2.7,7.6,8,4.4,12.1c-1.1,1.4-2.9,2.2-4.6,2.9c-5.1,2.2-10,4.6-14.8,7.3
	c-10.1,5.5-19.6,12-28.4,19.4c-8.6,7.2-17,15-22.8,24.6c-3.6,5.9-6.2,12.3-8.3,18.8c-2.2,6.7-4.3,13.4-3.7,20.5
	c1.2,15.2,9.4,29.3,16.3,42.5c4.4,8.5,9.7,16.8,16.1,24c7,7.9,15.6,13.9,24.9,18.8c9.7,5.1,19.9,9.3,30.4,12.5
	c6,1.8,12,3.4,18.1,4.5c2.5,0.5,5,0.9,7.6,1.3c2.9,0.9,6,1.2,9.1,1.2c2.7,0.2,5.3,0.1,7.9,0c4.9-0.3,9.8-1.1,14.7-1.9
	c2.6-0.3,5.2-0.6,7.7-0.9c0.8-0.1,1.7-0.2,2.5-0.3c0,0.3,0,0.5,0,0.7c0,0.7,0.1,1.5,0.1,2.2c0.1,1.4,0.2,2.8,0.3,4.1
	c0.2,2.8,0.5,5.5,0.9,8.3c0.7,5.2,1.6,10.4,2.8,15.5c2,8.9,4.9,17.8,9.6,25.7c2.6,4.3,5.7,8.4,9.3,11.8c0.1,0.4,0.7,0.5,0.9,0
	c1.4-3.4,1.9-7.4,1.9-11.1c0-2.2-0.2-4.5-0.8-6.7c0.2,0.3,0.4,0.7,0.6,1c2.2,3.8,4.9,7.3,7.8,10.5c3.1,3.4,6.5,6.5,10.1,9.3
	c3.5,2.8,7.3,5.8,11.4,7.6c0.2,0.1,0.4,0.1,0.5,0c0,0,0.1,0.1,0.1,0.2c0,0,0,0,0,0.1c0,0.1,0,0.2,0,0.3c-0.1,0.5,0.8,0.5,0.8,0
	c0.8-6.1,0-12.2-1-18.3c-0.4-2.4-0.9-4.8-1.6-7.1c0.5,0.5,0.9,1,1.4,1.5c2.3,2.4,4.8,4.5,7.5,6.4c6,4.1,12.5,7.5,19.3,9.9
	c3.9,1.4,8,2.5,12.2,3c0.2,0,0.3-0.1,0.4-0.2c0.1-0.1,0.2-0.2,0.2-0.3c0.4-2.8-0.2-6.1-1-8.8c-0.4-1.4-0.9-2.7-1.5-4
	c-0.3-0.6-0.6-1.2-1-1.8c7.2,4.1,14.9,7.2,22.9,9.4c5.7,1.5,11.5,2.5,17.4,2.9c0.2,0,0.4-0.1,0.5-0.2c0.4,0.2,1,0,1-0.6
	c-0.1-4.3-0.2-8.7-1.2-13c-1-4-2.8-7.6-5.2-10.9c-2.2-3-4.7-5.7-7.2-8.3c2.9,1.8,6,3.2,9.1,4.4c6.4,2.4,13.3,3.5,20.2,3.2
	c3.9-0.2,7.8-0.8,11.5-1.9c0.1,0,0.2-0.1,0.2-0.1c0.3-0.1,0.5-0.3,0.4-0.6c-0.4-9.2-5.2-17.3-11.3-24c-2.1-2.3-4.3-4.4-6.6-6.5
	c1.4,0.7,2.9,1.4,4.4,2c3.1,1.2,6.3,2.2,9.5,2.8c3.1,0.7,6.3,1.1,9.5,1.2c1.6,0.1,3.2,0.1,4.7,0c1.2,0,2.5-0.1,3.8-0.3
	c0.1,0,0.1,0,0.2,0c0.8,0,1.6-0.1,2.4-0.3c0.3-0.1,0.6-0.5,0.5-0.8c-2.2-6.9-7.4-12.5-12.8-17.2c0.3,0,0.7,0,1,0
	c0.5,0,1.1-0.1,1.6-0.2c4.7-0.6,9.1-2.7,12.3-6.3C335.5,293.4,335.4,292.9,335,292.6z M210.2,249.6c-0.1-0.4-0.2-0.9-0.3-1.4
	c1.5,1.8,3.2,3.5,5.1,5c1.9,1.5,3.9,2.9,6,4.1c-1.6-0.2-3.2-0.3-4.8-0.3c-1.1,0-2.2-0.1-3.3,0c-0.5,0-1.1,0-1.7,0.1
	c-0.3,0-0.6,0-0.8,0.1c0-1,0-1.9,0.1-2.9C210.6,252.7,210.5,251.1,210.2,249.6z M194.7,256.4c-8.5-0.6-16.1-4.4-22.3-10.3
	c-3.3-3.1-6.3-6.5-9.4-9.8c-2.9-3.2-5.4-6.6-8.1-10c6.4,1.5,12.5,4.5,17.7,8c4.2,2.8,8,6.1,11.3,9.9c3.3,3.7,6.2,7.8,9.7,11.3
	C194,255.8,194.3,256.1,194.7,256.4z"/>
<path class="st2" d="M335,292.6c-24-15.2-50.7-25.9-78.6-31.3c-3.9-0.7-7.8-1.4-11.7-1.9c-3.7-0.5-7.6-1.2-11.4-1.1
	c1.8-7.7-0.3-15.3-4.3-21.9c1.5,1.4,3,2.7,4.7,3.9c2.2,1.5,4.5,2.9,6.9,4c2.3,1.1,4.9,2.3,7.4,2.6c0.4,0.1,0.5-0.4,0.4-0.7
	c0,0,0-0.1,0-0.2c0-3.1-0.6-6.3-2.2-9c4.1,2,8.6,3.2,13.2,3.5c0,0.1-0.1,0.2-0.1,0.3c-0.2,0.6,0.8,0.8,0.9,0.3c1-3.8,2-7.7,1.4-11.7
	c-0.5-3.7-1.9-7.3-3.4-10.7c-1.3-3.1-2.9-6.1-5.1-8.7c0.7,0.4,1.3,0.7,2,1.1c1.7,0.9,3.5,1.6,5.3,2.3c1.9,0.7,4,1.1,5.9,1.9
	c0.3,0.1,0.7-0.1,0.7-0.4c1.3-7.4,0.8-15.2-3-21.9c-1.7-3-4-5.4-6.6-7.5c-2.3-1.8-4.6-3.5-6.3-5.9c7.7,2.2,16,1.8,23.5-0.8
	c0.3-0.1,0.4-0.3,0.3-0.6c-1.3-8.1-5.1-15.6-10.8-21.4c3.7-0.9,7.4-1.8,11.1-2.7c0.5-0.1,0.6-0.8,0.1-1.1
	c-5.1-3.1-10.9-4.6-16.8-4.7c11.7-4.5,23-11.3,30-22c0.2-0.3-0.1-0.7-0.4-0.6c-1.7,0.5-3.4,0.8-5.2,1.1c8.2-4.2,15.1-10.9,19.5-19
	c0.2-0.3-0.1-0.6-0.4-0.5c-2.1,0.3-4.3,0.7-6.4,1.2c8.1-4.8,14.5-12.1,18.2-20.9c0.1-0.3,0-0.7-0.4-0.7c-3,0.1-6,0.5-9,1.2
	c-0.9,0.2-1.9,0.4-2.8,0.7c0.8-0.4,1.5-0.8,2.3-1.3c5.9-3.6,11.4-7.9,15.7-13.2c2.4-2.9,4.4-6.2,5.9-9.6c0.2-0.5,0-0.9-0.6-1
	c-4.3-0.5-8.7-0.5-12.9,0.3c0.6-0.3,1.1-0.5,1.7-0.8c6.9-3.3,13.5-7.3,19.5-12.1c0.3-0.3,0.2-0.9-0.1-1c-6.2-2.8-12.9-4.1-19.7-4.4
	c-4.8-0.2-9.8,0.1-14.6,0.9c1.7-0.8,3.4-1.5,5.1-2.4c3.5-1.7,6.9-3.7,10-5.9c2.9-2,6.2-4.3,8.2-7.3c0.2-0.3-0.2-0.6-0.4-0.5
	c-0.1-0.2-0.3-0.4-0.5-0.4c-2-0.1-4.2,0.2-6.2,0.4c-2.1,0.2-4.1,0.4-6.2,0.6c-4.1,0.5-8.2,1.1-12.2,1.8c-7.2,1.2-14.7,2.7-21.7,5
	c-10.2,2.5-20.3,5.5-30.1,8.9c-9.8,3.4-19.4,7.2-28.8,11.4c-9.1,4.1-17.9,8.9-25.8,15c-4,3.1-7.8,6.6-11.1,10.5
	c-0.3,0.3-0.5,0.6-0.8,1c-2.9,2.8-4.9,6.1-6.5,9.7c-0.3,0.6-0.6,1.2-0.8,1.8c0,0,0,0.1,0,0.1c-1.5,4-2.5,8.3-3.3,12.4
	c-1.9,8.9-4.1,17.5-8.2,25.7c-7.9,15.6-20.9,28.4-37.5,34.2c-0.9,0.3-1.8,0.6-2.7,0.9c0-0.2-0.1-0.4-0.1-0.6
	c-0.2-0.7-0.3-1.5-0.4-2.2c-0.1-0.8-0.2-1.7-0.3-2.5c0-0.6-0.1-1.2-0.1-1.7c0-1.8,0-3.6,0-5.4c0.1-0.1,0.1-0.2,0.1-0.3
	c0.6-8.4,5.6-15.6,9.5-22.8c4.2-7.7,7.5-16,9.6-24.5c3.9-15.6,3.8-34-7.8-46.5c-5.5-6-13.2-9.4-21-11.4c0.1,0,0.2,0,0.2-0.1
	c0.4-0.2,0.5-0.8,0-0.9C95.7,47,81,54.5,73.1,65.4c-2.4,3.4-4.3,7.2-6.2,10.9c-0.8,1.7-1.7,3.4-2.1,5.3c-0.1,0.4-0.1,0.9,0.1,1.2
	c0.2,0.3,0.5,0.4,0.9,0.6c4.6,2,8.9,4.8,12.5,8.2c2.9,2.7,7.6,8,4.4,12.1c-1.1,1.4-2.9,2.2-4.6,2.9c-5.1,2.2-10,4.6-14.8,7.3
	c-10.1,5.5-19.6,12-28.4,19.4c-8.6,7.2-17,15-22.8,24.6c-3.6,5.9-6.2,12.3-8.3,18.8c-2.2,6.7-4.3,13.4-3.7,20.5
	c1.2,15.2,9.4,29.3,16.3,42.5c4.4,8.5,9.7,16.8,16.1,24c7,7.9,15.6,13.9,24.9,18.8c9.7,5.1,19.9,9.3,30.4,12.5
	c6,1.8,12,3.4,18.1,4.5c2.5,0.5,5,0.9,7.6,1.3c2.9,0.9,6,1.2,9.1,1.2c2.7,0.2,5.3,0.1,7.9,0c4.9-0.3,9.8-1.1,14.7-1.9
	c2.6-0.3,5.2-0.6,7.7-0.9c0.8-0.1,1.7-0.2,2.5-0.3c0,0.3,0,0.5,0,0.7c0,0.7,0.1,1.5,0.1,2.2c0.1,1.4,0.2,2.8,0.3,4.1
	c0.2,2.8,0.5,5.5,0.9,8.3c0.7,5.2,1.6,10.4,2.8,15.5c2,8.9,4.9,17.8,9.6,25.7c2.6,4.3,5.7,8.4,9.3,11.8c0.1,0.4,0.7,0.5,0.9,0
	c1.4-3.4,1.9-7.4,1.9-11.1c0-2.2-0.2-4.5-0.8-6.7c0.2,0.3,0.4,0.7,0.6,1c2.2,3.8,4.9,7.3,7.8,10.5c3.1,3.4,6.5,6.5,10.1,9.3
	c3.5,2.8,7.3,5.8,11.4,7.6c0.2,0.1,0.4,0.1,0.5,0c0,0,0.1,0.1,0.1,0.2c0,0,0,0,0,0.1c0,0.1,0,0.2,0,0.3c-0.1,0.5,0.8,0.5,0.8,0
	c0.8-6.1,0-12.2-1-18.3c-0.4-2.4-0.9-4.8-1.6-7.1c0.5,0.5,0.9,1,1.4,1.5c2.3,2.4,4.8,4.5,7.5,6.4c6,4.1,12.5,7.5,19.3,9.9
	c3.9,1.4,8,2.5,12.2,3c0.2,0,0.3-0.1,0.4-0.2c0.1-0.1,0.2-0.2,0.2-0.3c0.4-2.8-0.2-6.1-1-8.8c-0.4-1.4-0.9-2.7-1.5-4
	c-0.3-0.6-0.6-1.2-1-1.8c7.2,4.1,14.9,7.2,22.9,9.4c5.7,1.5,11.5,2.5,17.4,2.9c0.2,0,0.4-0.1,0.5-0.2c0.4,0.2,1,0,1-0.6
	c-0.1-4.3-0.2-8.7-1.2-13c-1-4-2.8-7.6-5.2-10.9c-2.2-3-4.7-5.7-7.2-8.3c2.9,1.8,6,3.2,9.1,4.4c6.4,2.4,13.3,3.5,20.2,3.2
	c3.9-0.2,7.8-0.8,11.5-1.9c0.1,0,0.2-0.1,0.2-0.1c0.3-0.1,0.5-0.3,0.4-0.6c-0.4-9.2-5.2-17.3-11.3-24c-2.1-2.3-4.3-4.4-6.6-6.5
	c1.4,0.7,2.9,1.4,4.4,2c3.1,1.2,6.3,2.2,9.5,2.8c3.1,0.7,6.3,1.1,9.5,1.2c1.6,0.1,3.2,0.1,4.7,0c1.2,0,2.5-0.1,3.8-0.3
	c0.1,0,0.1,0,0.2,0c0.8,0,1.6-0.1,2.4-0.3c0.3-0.1,0.6-0.5,0.5-0.8c-2.2-6.9-7.4-12.5-12.8-17.2c0.3,0,0.7,0,1,0
	c0.5,0,1.1-0.1,1.6-0.2c4.7-0.6,9.1-2.7,12.3-6.3C335.5,293.4,335.4,292.9,335,292.6z M320.6,299.2c-0.2,0-0.3,0.1-0.4,0.2
	c-0.1,0-0.2,0-0.4,0c-0.2,0-0.4,0-0.7,0c0,0,0,0-0.1,0c-0.2-0.1-0.4-0.3-0.5-0.4c-6.3-5.2-13.5-9.3-20.9-12.6
	c-7.6-3.4-15.6-6.1-23.6-8.4c-9.1-2.6-18.4-4.7-27.8-6.2c-0.8-0.1-1.5-0.2-2.3-0.4c-5.2-1-10.5-1.7-15.8-2.2
	c-10.3-1-20.8-1.3-31.1-0.5c-2.8,0.2-5.7,0.5-8.5,0.9c-2.8,0.4-5.8,0.6-8.5,1.4c-0.1,0-0.1,0.2,0,0.2c2.5,0,5-0.6,7.5-0.8
	c2.6-0.3,5.2-0.5,7.8-0.6c5.1-0.3,10.2-0.5,15.3-0.4c10.3,0.1,20.5,1,30.7,2.7c5.7,0.9,11.3,2.2,16.9,3.4c0.2,0,0.2-0.2,0.1-0.3
	c-0.5-0.2-1-0.3-1.5-0.5c4.2,0.9,8.4,1.9,12.5,3c15.8,4.2,31.7,9.8,45.1,19.4c7.1,5.2,14.1,11.7,17,20.1c-0.5,0.1-0.9,0.3-1.4,0.5
	c-1.3,0-2.6,0.2-3.9,0.2c-1.6,0.1-3.2,0-4.7,0c-3.2-0.1-6.4-0.5-9.5-1.2c-3-0.6-6-1.5-8.9-2.6c-1.6-0.6-3.2-1.2-4.7-1.9
	c-0.7-0.3-1.4-0.6-2.1-1c-4.3-3.5-8.9-6.6-14-8.7c-4.8-2.1-9.9-3.6-15-5c-0.3-0.1-0.5,0.4-0.1,0.5c8.7,2.8,17.4,5.4,24.7,11.1
	c7,5.4,13.9,11.9,18.2,19.6c2.5,4.4,4.1,9.2,4.4,14.2c-12.8,3.6-26.8,1.6-38.4-4.8c-1.9-1.1-3.7-2.3-5.4-3.5c-2.1-2-4.2-4-6.4-5.9
	c-3.6-3.1-7.4-6-11.7-8.1c-0.1,0-0.2,0.1-0.1,0.1c6.8,4.8,13,10.1,18.8,16.1c5.5,5.6,11.5,11.6,13.8,19.3c1.4,4.5,1.5,9.2,1.6,13.9
	c0,0,0,0-0.1,0c-20.6-1.6-40.4-10-56-23.5c-4.4-3.8-9-8-11.6-13.3c-0.1-0.2-0.3,0-0.3,0.1c1.5,5,5.6,8.8,9.3,12.3
	c3.8,3.6,8,6.9,12.4,9.8c1.5,1,3.1,2,4.7,2.9c0.1,0.2,0.3,0.4,0.4,0.6c0.3,0.6,0.6,1.2,0.9,1.7c0.6,1.4,1.1,2.8,1.5,4.2
	c0.4,1.4,0.7,2.8,0.8,4.2c0.1,1.2,0.1,2.4,0.1,3.6c-8.8-1.7-17.1-4.7-25-9.2c-3.7-2.1-7.2-4.5-10.5-7.2c-1.5-1.3-3-2.7-4.3-4.2
	c-0.5-0.6-1-1.3-1.5-2c-0.7-1.4-1.4-2.7-2.4-3.9c-0.1-0.1-0.2,0-0.1,0.1c0.1,0.1,0.1,0.1,0.1,0.2c-0.2-0.1-0.5,0-0.4,0.2
	c0.7,1.8,1.7,3.5,3,5.1c1,3,1.4,6.1,1.8,9.2c0.7,5.4,1.5,10.9,1.1,16.4c-0.1-0.1-0.2-0.1-0.3-0.2c0,0-0.1,0-0.1,0
	c-1.8-1.4-3.8-2.5-5.7-3.8c-1.9-1.3-3.7-2.6-5.5-4c-3.4-2.7-6.7-5.7-9.6-8.9c-2.9-3.2-5.5-6.7-7.8-10.3c-2.3-3.7-4-7.7-6-11.6
	c-0.1-0.1-0.2,0-0.2,0.1c0.6,3.1,1.8,6.1,3.3,8.9c0.3,1.2,0.6,2.4,0.8,3.6c0.3,1.8,0.4,3.7,0.4,5.6c0,3.4-0.7,6.6-1.7,9.8
	c-7.2-7-11.8-16.1-15-25.6c-3.5-10.7-5.5-22-6.5-33.1c-0.2-1.6-0.3-3.2-0.4-4.9c-0.1-1.2,0-2.6-0.2-3.8c12.8-1.4,25.7-2.2,38.4-0.3
	c3.6,0.6,7.2,1.4,10.7,2.4c0.4,0.1,0.8,0.3,1.2,0.4c3.4,1.2,6.7,2.8,9.7,4.7c0.5,0.3,0.9-0.5,0.5-0.8c-0.1-0.1-0.2-0.1-0.3-0.2
	c0.2-0.2,0.3-0.6,0-0.8c-2.3-1.4-5-2.5-7.6-3.4c-9.2-4-19.6-5-29.6-5.3c-4.2-0.1-8.4-0.1-12.5,0.1c-3.3,0.2-6.5-0.2-9.7,0.5
	c-8.1,1.7-16.2,3.2-24.4,3.9c-13.8,1.1-27.1-1.5-40.4-5.1c-21.4-5.8-43-16.8-58-33.5c-9-10-15.2-22.1-21.2-34.1
	c-3.6-7.2-7.1-14.5-9.1-22.3c-2-7.7-1.7-15.2,0-22.9c2.3-10.3,6.9-22.2,14.1-30c7.9-8.6,15.8-16.4,25.3-23.3
	c6.5-4.8,13.3-9.2,20.3-13.3c3.4-2,6.9-3.9,10.5-5.7c3.2-1.6,6.7-3.8,10.1-4.8c0.1,0,0.2-0.1,0.2-0.1c1.7-1,3.3-2.2,4.4-3.8
	c0.1-0.1-0.1-0.2-0.1-0.1c-1.2,1.2-2.5,2.2-3.9,3.1c1.1-5-1.9-9.7-5.2-13.2c-1.8-1.9-3.8-3.7-5.9-5.2c-2-1.5-4.3-3.1-6.8-3.8
	c0.3-1.4,0.8-2.8,1.3-4.1c0.1,0,0.2-0.1,0.2-0.2c3.4-8,8.2-15.6,15.3-20.8c6.4-4.8,14.7-7.2,22.6-5.8c-0.1,0-0.1,0-0.2,0
	c-0.5-0.1-0.6,0.8-0.1,0.9c7.7,1.8,15.5,4.7,21.4,10.3c5.6,5.3,9,12.5,10.5,20c1.7,8.8,0.6,18-1.5,26.6c-2.1,8.5-5.2,16.6-9.4,24.3
	c-4.1,7.5-9.4,14.9-9.7,23.8c0,0.1,0,0.2,0.1,0.3c-0.3,1.8-0.4,3.5-0.3,5.3c0,1.4,0.2,2.9,0.4,4.3c0,0.2,0.1,0.4,0.1,0.6
	c0,0.7,0.1,1.4,0.2,2.1c0,0.2,0,0.4,0.1,0.6c-8.3,2.3-17,3-25.5,1.5c-0.3,0-0.4,0.3-0.1,0.4c8.7,1.8,17.7,1.5,26.2-0.8
	c0.1,0,0.2,0,0.2-0.1c8.3-2.2,16.1-6.2,22.8-11.6c13.5-10.9,22.3-26.9,26-43.7c1.8-7.9,2.8-16.5,6.5-23.8c1.6-2.4,3.2-4.7,5-6.9
	c2.9-3.4,6.1-6.5,9.6-9.4c7.6-6.3,16.2-11.1,25.1-15.3c18.4-8.7,37.9-15.4,57.6-20.5c11.2-2.9,22.5-5,33.8-6.9
	c0.2,0,0.3-0.2,0.3-0.3c1.3-0.1,2.5-0.3,3.8-0.4c2.1-0.2,4.1-0.4,6.2-0.5c1.7-0.1,3.5-0.1,5.2-0.3c-1,0.8-1.9,1.8-2.9,2.6
	c-1.5,1.3-3.1,2.5-4.7,3.6c-3.1,2.1-6.3,4-9.7,5.7c-3.8,1.9-7.6,3.4-11.6,4.8c-0.2,0-0.3,0.1-0.5,0.1c-0.1,0-0.1,0.1-0.1,0.1
	c-3.7,1.3-7.4,2.6-11,4.1c-0.2,0.1-0.1,0.4,0.1,0.3c4.8-1.1,9.5-2.6,14.1-4.4c6.1-0.7,12.2-1.6,18.4-1.4c6.4,0.2,12.8,1.3,18.7,3.8
	C326,55.2,320,59,313.6,62.2c-3.4,1.7-6.9,3.1-10.4,4.4c-3.5,1.3-7.2,2.1-10.7,3.3c-0.3,0.1-0.3,0.6,0.1,0.6
	c3.7-0.5,7.4-1.8,10.9-2.9c2-0.7,4-1.5,6-2.3c4.9-0.4,9.8-0.7,14.7-0.3c-3.5,7.5-9.2,13.5-15.9,18.3c-3.8,2.7-7.9,5.1-12,7.3
	c-4.3,2.3-8.8,4.1-13.1,6.3c-0.3,0.2-0.1,0.7,0.2,0.6c3.5-1.4,7-3,10.5-4.6c1.7-0.8,3.5-1.6,5.2-2.5c1.8-0.5,3.7-1.1,5.6-1.5
	c2.7-0.5,5.5-0.9,8.3-1c-4.6,10.1-12.9,18.3-23.1,22.8c-0.4,0.2-0.1,0.8,0.3,0.7c1.5-0.6,2.9-1.3,4.2-2.1c2.4-0.5,4.8-0.9,7.2-1.2
	c-4.9,8.4-12.4,15-21.2,19c-0.4,0.2-0.2,0.9,0.2,0.9c2.3-0.2,4.7-0.6,6.9-1.2c-7.1,10.6-18.8,16.7-30.4,21.5c-0.1,0-0.2,0-0.3,0
	c-0.3,0-0.3,0.3-0.2,0.5c0,0.1,0.1,0.3,0.3,0.2c0.1,0,0.1,0,0.2-0.1c5.9,0,11.6,1.5,16.7,4.4c-3.5,0.9-7,1.9-10.4,2.8
	c-0.3,0.1-0.4,0.5-0.2,0.8c5.8,5.7,9.7,13.1,11,21.1c-7.8,2.6-16,2.6-23.9,0.2c-0.4-0.1-0.8,0.4-0.6,0.8c1.5,2.6,3.9,4.5,6.2,6.4
	c2.6,2.1,5,4.3,6.8,7.1c4,6.4,4.7,14.1,3.5,21.5c-1.7-0.6-3.4-1-5.1-1.6c-1.9-0.7-3.7-1.4-5.5-2.3c-1.8-0.8-3.5-1.7-5.1-2.7
	c-1-0.9-2.1-1.6-3.3-2.1c-0.5-0.4-1.1-0.7-1.6-1.1c-0.3-0.2-0.6,0.2-0.3,0.4c0,0,0,0,0,0c0,0,0,0-0.1,0c-0.1,0-0.2,0.2-0.1,0.2
	c0.6,0.3,1.1,0.7,1.6,1c1.1,0.9,2.2,1.7,3.4,2.5c0.8,0.7,1.6,1.4,2.3,2.3c2.3,2.7,3.9,5.9,5.2,9.1c1.3,3.3,2.7,6.8,3.1,10.3
	c0.4,3.3-0.3,6.5-1.1,9.7c-6.5-0.3-12.7-2.7-18.2-6.2c-2.6-1.7-5.1-3.6-7.4-5.7c-2.3-2.1-4.4-4.5-6.7-6.6c0,0-0.1,0,0,0
	c1.7,2.6,4,5,6.3,7.1c2.4,2.2,4.9,4.3,7.6,6.1c1.5,1,3,1.8,4.6,2.6c0.5,1.4,0.9,2.8,1.2,4.2c0.4,1.6,0.5,3.1,0.5,4.7
	c-1-0.4-2.1-0.6-3.2-1c-1.2-0.4-2.5-1-3.6-1.5c-2.3-1.1-4.5-2.3-6.6-3.8c-2.1-1.5-4.1-3.1-5.9-4.9c-0.8-0.8-1.6-1.7-2.4-2.6
	c-0.3-0.4-0.7-0.9-1.1-1.3c-0.5-0.7-1-1.3-1.6-1.9c-0.1-0.1-0.1-0.1-0.2-0.1c-0.1-0.1-0.2,0-0.2,0.1c0,0,0,0.1,0,0.2
	c0.9,2.1,2.7,4,4.3,5.7c4.7,7.5,7.2,16.5,4.8,25.3c0,0,0,0,0,0c-1.9-0.1-3.5-0.3-5.3-1c-1.4-0.6-2.8-1.2-4.1-2
	c-2.6-1.4-5.1-2.9-7.4-4.8c-4.5-3.6-8.4-8.4-10.4-13.9c0-0.1-0.2-0.1-0.2,0c0.8,2.9,2.1,5.5,3.8,7.9c0.1,0.6,0.4,1.1,0.5,1.7
	c0.2,0.6,0.3,1.3,0.4,1.9c0.2,1.4,0.3,2.9,0.2,4.4c-0.1,2.6,0,5.5-1.1,8c-5.3-1.2-10.1-3.9-14-7.6c-3.7-3.5-6.8-7.6-10.2-11.3
	c-6.7-7.4-15.1-12.9-24.5-16.2c-5.7-2-11.7-3-17.7-1.8c-0.4,0.1-0.2,0.6,0.2,0.6c4-0.7,8.1-0.5,12.1,0.4c1.9,4.2,5.1,7.8,8.1,11.3
	c3.1,3.5,6.4,7.1,9.9,10.3c6.4,5.9,14.7,9.3,23.4,9.6c3.6,3,7.8,5.1,12.4,6.2c0.1,0,0.2,0,0.3,0c0.2,0.1,0.5,0.1,0.6-0.2
	c1-1.8,1.3-3.8,1.4-5.9c0.3,0.1,0.6,0.1,0.8,0.1c0.5,0,1,0.1,1.5,0.1c1.1,0.1,2.3,0.1,3.4,0.1c2.2,0.1,4.5,0.3,6.7,0.6
	c0,0,0.1,0,0.1,0c2.6,1.4,6.1,3.3,9,2.5c0.1,0,0.2-0.1,0.2-0.2c0.2,0,0.3-0.1,0.4-0.3c0.2-0.5,0.3-1,0.4-1.5
	c3.3,0.6,6.6,0.9,9.9,1.3c3.5,0.5,7,1,10.4,1.7c6.9,1.3,13.8,2.9,20.6,4.8c13.6,3.9,26.9,9,39.6,15.4c6.8,3.4,13.4,7.2,19.8,11.3
	C330.1,296.9,325.6,299,320.6,299.2z M210.2,249.6c-0.1-0.4-0.2-0.9-0.3-1.4c1.5,1.8,3.2,3.5,5.1,5c1.9,1.5,3.9,2.9,6,4.1
	c-1.6-0.2-3.2-0.3-4.8-0.3c-1.1,0-2.2-0.1-3.3,0c-0.5,0-1.1,0-1.7,0.1c-0.3,0-0.6,0-0.8,0.1c0-1,0-1.9,0.1-2.9
	C210.6,252.7,210.5,251.1,210.2,249.6z M194.7,256.4c-8.5-0.6-16.1-4.4-22.3-10.3c-3.3-3.1-6.3-6.5-9.4-9.8c-2.9-3.2-5.4-6.6-8.1-10
	c6.4,1.5,12.5,4.5,17.7,8c4.2,2.8,8,6.1,11.3,9.9c3.3,3.7,6.2,7.8,9.7,11.3C194,255.8,194.3,256.1,194.7,256.4z"/>
<path class="st3" d="M56.1,159.4c-1,3-3.5,5.3-6.4,6.4c-1.5,0.5-3.1,0.7-4.6,0.5c-1.9-0.3-4-1.6-3.6-3.8c0.1-0.7-0.8-1-1.1-0.3
	c-0.9,2.9-3,5.7-6.3,5.8c-3.7,0.1-5-3.5-4.4-6.6c0.1-0.4-0.5-0.8-0.8-0.3c-1.2,2.6-4.7,3.9-7.3,2.4c-2.6-1.5-3.1-4.9-2-7.5
	c0-0.1-0.1-0.1-0.1-0.1c-2,2.5-0.9,6.5,1.7,8.1c2.4,1.4,5.5,0.7,7.4-1.2c-0.1,2.9,1.3,5.8,4.6,6.2c3.3,0.4,5.8-1.8,7.2-4.4
	c1.1,2.7,5.3,3.4,8.1,2.8c3.9-0.8,7.2-3.7,8.5-7.5C57.4,159.1,56.4,158.8,56.1,159.4z"/>
<path class="st3" d="M27.9,172c-0.8,2.5-4,4.5-6.3,2.3c-1-1-1.1-2.6-1.1-4c0-1.7,0.4-3.3,1.1-4.9c0.2-0.5-0.5-0.9-0.7-0.4
	c-0.9,1.7-2.2,3.2-4,3.7c-1.7,0.5-3.7-0.1-5-1.3c0,0-0.1,0-0.1,0c0.9,1.9,3,2.5,4.9,2.1c1.3-0.3,2.4-1,3.3-1.9
	c-0.3,1.1-0.4,2.3-0.4,3.4c0,1.6,0.4,3.3,1.8,4.3c2.9,2.1,6.4-0.1,7.5-3C29.1,171.7,28.2,171.4,27.9,172z"/>
<path class="st3" d="M52.2,174.5c-0.4,0.2-0.7,0.3-1.1,0.4c-0.4,0.2-0.8,0.4-1.2,0.5c-0.8,0.2-1.7,0.3-2.5,0c-1.1-0.5-1.9-2-1.1-3.1
	c0.4-0.7-0.6-1.3-1.1-0.6c-1.3,2.2-2.9,4.5-5.5,5.1c-1.2,0.3-2.5,0.2-3.5-0.5c-1-0.7-1.8-2.1-1.6-3.4c0-0.1-0.1-0.2-0.2,0
	c-1,2.9,1.6,5.3,4.3,5.2c2.7-0.1,4.7-1.7,6.2-3.8c0.3,0.8,0.8,1.5,1.5,1.9c0.9,0.5,1.9,0.6,3,0.5c0.6-0.1,1.1-0.3,1.6-0.6
	c0.6-0.3,0.9-0.8,1.4-1.3C52.7,174.7,52.4,174.4,52.2,174.5z"/>
<path class="st3" d="M35.6,201.8c-0.1-0.5-0.8-0.5-0.9,0c-0.2,1.5-1.5,2.3-2.7,3.1c-1.2,0.8-2.6,1.4-4,0.9c-2.6-1-2.8-4.1-2.6-6.6
	c0.4-0.5,0.5-1-0.1-1.6c-0.3-0.3-0.8-0.1-0.9,0.4c0,0.3,0,0.5-0.1,0.8c-0.7,0.5-2.3,1.2-2.5,1.2c-1.1,0.2-2-0.3-2.7-1
	c-1.6-1.7-1.3-4.1-1.5-6.3c0-0.1-0.1-0.1-0.1,0c-0.8,2.8-0.6,6.6,2.4,8c1.4,0.6,2.7,0.2,4-0.4c0.1-0.1,0.2-0.1,0.4-0.2
	c0,2.9,0.6,6.1,3.8,6.9c1.8,0.4,3.4-0.5,4.8-1.5C34.2,204.7,35.9,203.5,35.6,201.8z"/>
<path class="st3" d="M48.3,195.8c-0.6,0.5-1.1,1-1.8,1.2c-0.7,0.2-1.5,0.2-2.2,0c-1-0.4-1.7-1.2-2-2.2c0.2-0.6,0.2-1.3-0.3-1.9
	c-0.4-0.5-1.1-0.3-1.1,0.3c0,0.5,0,1.1,0.1,1.6c-0.3,0.8-1.1,1.6-1.5,2.1c-0.8,0.9-1.8,1.8-3,2.1c-2.4,0.5-4.2-2.3-4-4.5
	c0,0,0,0,0,0c-0.3,1.4-0.2,2.7,0.6,3.9c0.8,1.1,2.2,1.7,3.6,1.5c1.7-0.3,3-1.5,4.1-2.7c0.3-0.3,0.5-0.6,0.8-1
	c0.5,0.9,1.4,1.6,2.4,1.9c1.7,0.6,4.4,0,5-1.9C49.1,195.8,48.5,195.6,48.3,195.8z"/>
<path class="st3" d="M51.9,202.9c-1.1,0.9-2.3,1.9-3.8,1.8c-1.1-0.1-2.2-0.8-2.5-1.9c0-0.3,0-0.6-0.1-0.9c-0.2-0.6-1-0.4-1,0.1
	c0,0.3,0,0.6,0.1,0.9c-0.1,1.9-2.6,3.1-4.2,3.7c-1.2,0.4-2.2,0-2.8-1c-0.6-0.9-0.6-1.9-1-2.9c0,0-0.1,0-0.1,0
	c-0.5,2.5,1.2,5.7,4.1,4.8c1.7-0.5,3.9-1.6,4.8-3.3c0.6,0.7,1.4,1.3,2.4,1.4c1.9,0.3,3.9-0.7,4.9-2.3
	C52.8,203,52.3,202.7,51.9,202.9z"/>
<path class="st3" d="M49.3,215.5c-1,0.4-2.2,0.5-3.1-0.2c-0.9-0.7-1.2-1.8-0.9-2.8c0.2-0.7-0.9-1-1.1-0.3c-0.4,1.7-2.2,3.2-3.9,3.5
	c-0.9,0.2-2,0-2.7-0.6c-0.7-0.7-0.9-1.4-0.9-2.3c0-0.1-0.1-0.1-0.2-0.1c-0.6,0.7-0.3,1.8,0.1,2.5c0.6,1,1.8,1.5,2.9,1.5
	c1.2,0,2.5-0.5,3.5-1.2c0.5-0.3,0.8-0.7,1.2-1.2c0.2,0.8,0.6,1.5,1.3,1.9c1.3,0.9,3.1,0.9,4.2-0.2C49.9,215.9,49.6,215.4,49.3,215.5
	z"/>
<path class="st3" d="M81.1,143.7c-0.9,0.7-1.5,1.5-2.6,1.9c-1,0.4-2.1,0.5-3.2,0.2c-1-0.3-2-0.9-2.6-1.8c-0.5-0.8-0.8-1.9-0.2-2.7
	c0.4-0.4,0-1.1-0.6-1c-1.5,0.4-3.5,0.8-4.7-0.5c-1.1-1.2-0.3-3.3,0.3-4.6c0-0.1-0.1-0.1-0.2-0.1c-1.1,1.5-2.2,3.6-0.8,5.3
	c1.1,1.4,2.9,1.5,4.5,1.2c-0.6,2.1,1.4,4.3,3.3,5.1c1.3,0.5,2.9,0.6,4.2,0.1c1.2-0.4,2.8-1.4,3.1-2.8
	C81.8,143.7,81.4,143.5,81.1,143.7z"/>
<path class="st3" d="M81.9,136.9c-1.1,0-2.3,0.6-3.4,0.9c-1,0.3-2,0.5-3,0.3c-0.9-0.1-1.7-0.5-2.2-1.3c-0.4-0.7-0.6-1.7,0-2.4
	c0.1-0.1-0.1-0.3-0.2-0.2c-1.6,1.5-0.4,3.9,1.3,4.7c1.2,0.5,2.6,0.4,3.8,0.1c0.7-0.1,1.3-0.3,2-0.5c0.7-0.2,1.4-0.5,1.9-1.1
	C82.3,137.3,82.2,136.9,81.9,136.9z"/>
<path class="st2" d="M287.5,42.8c-9.3,2.6-18.4,5.9-27.4,9.4c-8.2,3.2-16.5,6.6-24.3,10.9c-7.4,4.1-14.4,9-20.2,15.1
	c-5.1,5.4-9.2,11.7-12.6,18.4c-5.5,10.6-9.2,22-13.6,33.1c-0.1,0.1-0.1,0.2-0.2,0.2c-0.1,0.1,0,0.2,0,0.2c-1.2,3-2.4,6-3.7,9
	c-3.1,6.9-6.7,13.7-11.2,19.9c-4.7,6.3-10.2,11.8-16.6,16.3c-12.7,8.9-28.2,13.8-43.8,13.7c-1.9,0-3.8-0.1-5.7-0.3
	c-0.8-0.1-0.8,1.2,0,1.2c15.4,1.4,30.7-2.3,44.2-9.7c6.7-3.7,12.8-8.4,18.2-13.8c5.4-5.5,9.7-11.8,13.3-18.6
	c3.5-6.7,6.3-13.7,9-20.8c1.4-1.5,2.8-2.9,4.3-4.3c2.7-2.5,5.5-4.8,8.5-6.9c5.9-4.1,12.3-7.7,18.9-10.4c0.2-0.1,0.1-0.3-0.1-0.3
	c-7,2.4-13.5,5.7-19.5,9.9c-2.9,2.1-5.7,4.3-8.3,6.8c-1,0.9-2,1.8-2.9,2.8c1.8-4.9,3.6-9.9,5.6-14.8c0.4-0.5,0.9-1,1.3-1.5
	c1.8-2,3.6-3.8,5.6-5.6c4-3.7,8.3-6.9,12.8-10c9.3-6.3,19.4-11.8,29.9-15.8c6.1-2.3,12.2-3.8,18.5-5.1c0.3-0.1,0.3-0.7-0.1-0.6
	c-5.6,0.7-11.2,2.4-16.5,4.3c-5.5,1.9-10.8,4.2-16,6.9c-9.8,5-19.5,10.9-27.7,18.3c-2.2,2-4.4,4.1-6.3,6.3c-0.1,0.2-0.3,0.3-0.4,0.5
	c0.3-0.8,0.6-1.5,1-2.3c3-7,6.5-13.7,11-19.9c4.9-6.8,11.1-12.4,18-17c7.2-4.8,15.1-8.6,23-12c9-4,18.2-7.5,27.5-10.8
	c2.3-0.8,4.5-1.6,6.8-2.4C287.7,43,287.7,42.8,287.5,42.8z"/>
<path class="st3" d="M176.8,71.6c0.6,4.1-4.4,5.4-7.5,5c-0.3,0-0.5,0.3-0.4,0.6c0.4,1.3,1.5,1.9,2.4,2.9c1.6,1.7,0.6,4-0.6,5.6
	c-1.9,2.5-6.2,5.3-8.9,2.5c0.3-0.3,0.6-0.5,0.8-0.8c2.6-3,2-7.3,0.5-10.8c1.1,0.4,2.5,0.1,3.2-1c0.9-1.3,0.4-2.8-0.6-3.8
	c2.5,0.1,4.9-1,6.9-2.4c2.3-1.6,4.4-3.9,5-6.7c1-4.3-2.6-8.3-6.8-8.3c1.9-1.2,4.1-2.6,3.3-5c-0.3-0.7-0.9-1.2-1.6-1.4
	c0.9-0.8,1.8-1.6,2.7-2.4c0.8-0.7,1.6-1.5,2-2.6c0.9-2.1-0.7-3.6-2.7-3.8c-2.4-0.3-5.2,0.5-7.4,1.5c-2.6,1.1-4.8,2.7-6.7,4.7
	c0,0,0,0.1,0.1,0.1c3.4-2.9,7.6-5,12-5.4c0.9-0.1,1.9-0.2,2.8,0.1c1.7,0.6,1.5,2.2,0.6,3.4c-1.3,1.7-3.3,3.1-5,4.5
	c-0.2,0.1-0.3,0.2-0.4,0.4c0,0-0.1,0-0.1,0.1c0,0,0,0,0,0c0,0-0.1,0-0.1,0.1c-0.3,0.4,0.3,0.8,0.7,0.5c0.2-0.1,0.3-0.3,0.5-0.4
	c0.5-0.2,1.2,0.1,1.5,0.4c0.8,0.9,0,2.3-0.7,3c-1.1,1-2.5,1.6-3.7,2.5c-0.3,0.3,0,0.8,0.4,0.7c4.7-1.4,9.2,3.1,7.6,7.7
	c-1.6,4.6-7.8,9.1-12.7,7.6c-0.5-0.1-0.7,0.6-0.2,0.7c1.4,0.4,2.8,2.1,2,3.5c-0.7,1.1-2.6,1.4-3.3,0.2c-0.3-0.4-0.9-0.1-0.7,0.4
	c1.6,3.2,2.8,7.6,0.5,10.8c-0.3,0.4-0.7,0.9-1.1,1.2c-0.3-0.3-0.8,0-0.7,0.5c-1.9,1.2-4.3,1.4-6.1-0.1c-0.4-0.3-1,0.2-0.6,0.6
	c2,1.7,4.8,1.5,6.9,0.2c1.1,3.4-0.5,7.6-2.7,10.2c-1.1,1.3-2.6,2.4-4.4,2.3c-1.7-0.1-3.7-1.5-3.8-3.4c0,0,0,0,0,0
	c-0.2,1.8,0.8,3.1,2.5,3.7c1.8,0.7,3.7,0.1,5.2-1.1c3-2.5,5.1-7.2,4.2-11.2c2.7,1.8,6.5,0.1,8.7-2.2c1.4-1.5,2.7-3.5,2.5-5.6
	c-0.2-1.9-1.9-2.7-2.9-4c1.9,0,3.9-0.2,5.5-1.4c1.5-1.1,2.3-2.8,2-4.7C177.6,70.9,176.8,71.1,176.8,71.6z"/>
<path class="st3" d="M180.2,54.1c2.6-1.4,5-3.7,4.6-6.9c-0.3-2.8-3.5-5-5.9-3c-0.1,0.1,0,0.3,0.2,0.2c2.7-1.4,5.4,1.1,5,3.9
	c-0.3,2.9-2.9,4.6-5.4,5.6c-0.4,0.2-0.4,0.8,0.1,0.8c2-0.1,4,1.4,4,3.5c0,2.1-1.7,3.4-3.6,3.8c-0.3,0.1-0.4,0.5-0.2,0.7
	c1.8,1.8,2,3.8,1.8,6.1c0,0.3,0.4,0.3,0.5,0.1c0.7-2,0-4.4-1.2-6.2c2-0.5,3.6-2.5,3.5-4.6C183.4,56.2,181.9,54.7,180.2,54.1z"/>
<path class="st3" d="M192.9,52.6c0.9-1.3,1.8-2.9,1.6-4.6c-0.2-3-3.4-4.1-5.9-4.6c0,0-0.1,0.1,0,0.1c2.1,0.8,4.7,1.7,5.2,4.1
	c0.3,1.4-0.3,2.8-1.1,4c-0.7,1.1-1.7,2.5-3.1,2.4c0,0,0,0,0,0c0,0-0.1,0-0.1,0c-0.4,0.1-0.3,0.7,0.1,0.8c0.2,0,0.4,0,0.6,0
	c1.3,0.1,1.4,2,0.8,2.9c-0.5,0.9-1.5,1.4-2.4,1.9c-0.2-0.2-0.4-0.3-0.6-0.4c-0.7-0.5-2.1-1.3-3-1c0,0-0.1,0.1,0,0.1
	c0.3,0.3,0.6,0.3,1,0.5c0.6,0.2,1.1,0.5,1.6,0.8c0.2,0.1,0.4,0.3,0.6,0.4c-0.1,0.1,0,0.4,0.2,0.3c0,0,0.1,0,0.1,0
	c0.6,0.5,1,1.2,1.2,1.9c0.3,0.9,0.1,2-0.4,2.9c-0.6,1-1.4,1.3-2.4,1.5c-2.2,0.5-1.4,3.1-1.7,4.8c-0.4,2.4-2.2,5.2-5,4.5
	c-0.5-0.1-0.7,0.6-0.2,0.8c2.4,0.6,4.6-1.1,5.5-3.3c0.5-1.3,0.6-2.6,0.6-4c0-0.4-0.1-0.9,0-1.3c0.2-0.6,0.6-0.6,1.1-0.8
	c0.5-0.1,0.9-0.2,1.3-0.5c1.6-1,2.2-3.3,1.5-5.1c-0.3-0.6-0.7-1.2-1.1-1.7c1.4-0.6,2.9-1.6,3.2-3.2c0.1-0.9-0.3-1.8-1-2.3
	C191.9,53.9,192.5,53.2,192.9,52.6z"/>
<path class="st3" d="M164,60.6c-1-2.9-4.2-4.4-7.1-3.5c-0.1,0-0.1,0.2,0,0.2c2.6-0.4,5.5,0.9,6.4,3.5c0.8,2.3-0.1,5.6-2.7,6.3
	c-0.5,0.1-0.3,0.8,0.2,0.8c1-0.2,1.2,1,1,1.7c-0.1,0.4-0.4,0.8-0.7,1.2c-0.5,0.7-1.1,1.4-1.7,2c-1.1,1.1-2.7,2-4.3,1.6
	c-0.3-0.2-0.7-0.3-1.1-0.4c-0.4-0.1-0.5,0.6-0.2,0.7c0.4,0.2,0.7,0.3,1,0.4c1.1,0.7,1.6,2.4,0.8,3.6c-1,1.6-2.8,1.5-4.4,1.5
	c-0.2,0-0.2,0.2-0.1,0.3c1.8,1.2,4.7-0.1,5.4-2c0.4-1.1,0.2-2.4-0.5-3.3c1.9-0.1,3.6-1.6,4.9-3.1c0.8-1,1.9-2.1,1.6-3.5
	c-0.1-0.5-0.4-1-0.7-1.3C164.1,66.1,164.8,63,164,60.6z"/>
<path class="st3" d="M153.5,67.3c-0.8-1.1-1.8-1.7-2.9-2.4c0,0,0,0,0,0c0.8,0.7,1.6,1.4,2.3,2.3c0.7,0.9,1.1,2,1,3.2
	c-0.3,2.3-2.6,3.8-4.9,3.2c-0.4-0.1-0.5,0.5-0.2,0.6c2.5,0.7,5.1-0.9,5.5-3.4C154.5,69.5,154.2,68.3,153.5,67.3z"/>
<path class="st1" d="M161.8,234.6c-3.1-4-6.5-8.2-11.4-9.4c-5.3-1.4-10.8,1.1-16.2,0.4c-0.7-0.1-1.5-0.2-2.2,0.1
	c-0.8,0.4-1.2,1.2-1.7,1.8c-1.5,1.5-4,1.4-5.8,0.3c-1.8-1.1-3-2.8-4.2-4.6c0.3,1-0.8,2-1.8,2c-1,0-2-0.6-2.9-1.1
	c4.1,9.3,12.9,15.8,22.3,19.4s19.7,4.6,29.8,5.6c1.7,0.2,3.3,0.4,5,0.2C170.8,244.2,165.2,239,161.8,234.6z"/>
<path class="st1" d="M50,151.9c2.2,0.8,4.7,0.3,6.5-1.2c-0.6,0.1-0.3,1,0.2,1.3c3.1,2.2,8,1.4,10.2-1.7c-1.1,1-1.4,2.6-1.9,4
	c-0.6,1.4-2,2.8-3.4,2.2c-0.4-0.2-0.8-0.5-1.2-0.6c-1.2-0.3-2.1,1.1-3.2,1.8c-1.5,1.2-3.8,0.8-5.4-0.2s-2.7-2.7-3.8-4.4
	c-0.5,2.5-4.3,3.2-6.2,1.4c-1.9-1.8-1.8-4.9-0.6-7.1C46.2,147.2,46,150.4,50,151.9z"/>
<path class="st1" d="M43.4,181.3c1.2,1.8,3.8,2.1,5.8,1.3c2-0.8,3.4-2.5,4.8-4.1c-0.9,3-2.2,6.2-4.8,8c-2.6,1.9-6.8,1.7-8.4-1
	c-1.2,1.8-2.6,3.6-4.5,4.5c-2.1,0.9-3.2-0.1-5-0.7c-0.7-0.2-0.7-1.7-1.6-2c-0.9-0.4-3.2,0.7-3.9-0.1c-2.2-2.7,3.6-6.4,5.2-8.8
	C29.6,184.9,40.2,184.9,43.4,181.3z"/>
<path class="st1" d="M69.9,188.7c-0.6,1.9-1.2,3.9-1.8,5.8c-0.8,2.5-1.6,5.1-3.7,6.7c-2.1,1.6-5,1.4-6.7-0.6
	c-2.6,7.5-12.2,2.4-5-3.6c3.4-2.8,4.9-0.6,8.7-0.8C66.3,196.1,68.5,193.1,69.9,188.7z"/>
<path class="st1" d="M71.4,113.3c6.4-0.9,13.4-1.8,18.8-5.8c4.4-3.3,10.4-11.2,9.8-17.1c-1.6-14.6-23.1-6.7-26.3-16.6
	c-0.8-2.4-0.2-5.1,0.5-7.5c-1.2,4.6-10.5,9-9.6,14.7c0.7,4,10.4,7.5,13.7,10.6c2.9,2.7,7.6,8,4.4,12.1c-1.1,1.4-2.9,2.2-4.6,2.9
	c-5.1,2.2-10,4.6-14.8,7.3c-0.3,0.2-0.7,0.4-1,0.6C65.4,114.1,68.4,113.7,71.4,113.3z"/>
<path class="st1" d="M127.2,79.4c5,21-8.2,42.6-17.3,60.6c-4,7.8-10.9,14.5-13.2,23.1c-0.7,2.5,0.1,4,0,6.3c0,0.5-0.4,2.4-0.7,2.3
	c0.6,0.7,4.9,0.6,6.2,0.6c5.8-0.2,11.5-1.4,17.1-3.2c-0.1-0.7-0.3-1.4-0.4-2.2c-0.1-0.8-0.2-1.7-0.3-2.5c0-0.6-0.1-1.2-0.1-1.7
	c0-1.8,0-3.6,0-5.4c0.1-0.1,0.1-0.2,0.1-0.3c0.6-8.4,5.6-15.6,9.5-22.8c4.2-7.7,7.5-16,9.6-24.5c3.9-15.6,3.8-34-7.8-46.5
	c-5.5-6-13.2-9.4-21-11.4c0.1,0,0.2,0,0.2-0.1c0.4-0.2,0.5-0.8,0-0.9c-4-1.1-8-1.2-12-0.6C111.2,53.1,124.1,66.1,127.2,79.4z"/>
<path class="st1" d="M113.4,189.9c-0.5-0.1-1.1-0.2-1.6-0.3c4.3,4.6,8.9,7.4,15.2,9c16.3,4,34.4,2.9,50.5-1.5
	c-0.9-1.2-1.4-2.7-1.6-4.3c5.9-2.3,12.3-3.3,18.5-2.7c-0.7-2.6-1.8-5-3.3-7.2c3.3,0.6,6.7-1.3,8.8-3.9s3.5-5.7,5-8.7
	c5-9.9,14.8-19.1,25.8-17.5c-7.1-5.1-8.8-11.6-5.5-19.7c3.4-8.7,9.5-17.6,18.7-19.1c-1.6,1.3-4.3-0.2-4.7-2.2c-0.5-2,0.6-4.1,2-5.7
	c2.2-2.5,5.2-4.2,8.4-4.9c-1.8,0.9-3.9-1.4-3.6-3.4c0.3-2,2.1-3.5,3.8-4.6c3-1.9,6.3-3.2,9.7-4c-3,0.7-5.4-3.1-4.6-6
	c0.8-2.9,3.5-4.9,6.1-6.4c6.6-3.7,14.1-6,21.6-6.6c-5.3-0.3-10.6-0.6-15.8-0.9c-1-0.1-2.1-0.2-2.7-1c-0.4-0.6-0.4-1.4-0.1-2.1
	c0.8-2.7,3.4-4.4,5.8-5.7c13.2-7.3,27.6-10,41.8-14.1c0.9-0.2,1.7-0.5,2.6-0.7c-0.3,0-0.5,0-0.8,0c-4.8-0.2-9.8,0.1-14.6,0.9
	c1.7-0.8,3.4-1.5,5.1-2.4c3.5-1.7,6.9-3.7,10-5.9c2.2-1.5,4.6-3.3,6.6-5.3c-23.8,7-48.2,13-71,23.1c-17.2,7.6-32.8,17.6-43.2,33.6
	c-10.6,16.5-14.4,36.1-23.2,53.4c-9.2,18.1-23.6,32.9-42.4,41C132.6,187.8,122.7,191.2,113.4,189.9z"/>
<path class="st1" d="M319.4,301.5c-0.1-0.1-0.2-0.2-0.3-0.3c1.2-1.6,3.3-2.4,5.2-2.1c-25.4-19.7-58.1-27.3-89.9-31.7
	c-5.6-0.8-11.2-1.4-16.8-1.6c-8.3-0.3-16.6,0.5-24.9,1.2c-19.8,1.8-38.6,4.1-58.4,1.6c-16.5-2-33.1-5.6-48.4-12.3
	c-6-2.6-10.4-6.5-15.8-10c-3.2-2.1-6.2-3.8-8-7.3c-0.3-0.7-2.5-8.6-0.8-8.5c-3.3-0.2-6-3.7-5.4-6.9c-0.7,1.3-3,0.7-3.5-0.8
	c-0.5-1.4,0.2-2.9,1-4.2c0.8-1.3,1.7-2.6,1.8-4.1c-0.9,2.1-3.7,3-5.7,1.9c-2-1.1-2.6-4-1.3-5.8c-1.1,1.7-4.1,1-5-0.8
	c-0.6-1.3-0.5-2.8,0-4.2c-1,1.2-3,1.8-4.6,1.3c-2.2-0.7-3.7-2.9-4.3-5.2c-0.5,2.9-4,4.8-6.8,3.7c-2.7-1.1-4-4.8-2.4-7.3
	c-2.1,1.7-5.6,1.3-7.2-0.9c-1.3-1.7-1.2-4.3,0-6.1c-0.7,0.4-1.6,0.4-2.3,0c-1.2-0.7-1.4-2.6-0.5-3.6c-2.9,0.7-5.9-1.3-7.3-3.9
	c-0.5-0.9-1.1-2.8-1.5-4.9c0,0.2-0.1,0.3-0.1,0.5c-2.5,9.6-3.4,20-0.1,29.5c3,8.7,9.5,15.7,15.4,22.5c5.5,6.4,9.9,13.2,14.5,20.2
	c9.9,15.1,24.4,24.7,40.5,32.3c16.4,7.7,33.8,12.8,52,13.7c4.5,0.2,9.1,0.8,13.5,0.5c1.9-0.1,3.8-0.6,5.7-0.5c1.8,0.1,3,0.8,3.8,1.8
	c0.4,0,0.8-0.1,1.2-0.1c0.8-0.1,1.7-0.2,2.5-0.3c0,0.3,0,0.5,0,0.7c0,0.7,0.1,1.5,0.1,2.2c0.1,1.4,0.2,2.8,0.3,4.1
	c0.2,2.8,0.5,5.5,0.9,8.3c0.7,5.2,1.6,10.4,2.8,15.5c2,8.9,4.9,17.8,9.6,25.7c2.6,4.3,5.7,8.4,9.3,11.8c0.1,0.4,0.7,0.5,0.9,0
	c1.4-3.4,1.9-7.4,1.9-11.1c0-2.2-0.2-4.5-0.8-6.7c0.2,0.3,0.4,0.7,0.6,1c2.2,3.8,4.9,7.3,7.8,10.5c3.1,3.4,6.5,6.5,10.1,9.3
	c3.5,2.8,7.3,5.8,11.4,7.6c0.2,0.1,0.4,0.1,0.5,0c0,0,0.1,0.1,0.1,0.2c0,0,0,0,0,0.1c0,0.1,0,0.2,0,0.3c-0.1,0.5,0.8,0.5,0.8,0
	c0.8-6.1,0-12.2-1-18.3c-0.4-2.4-0.9-4.8-1.6-7.1c0.5,0.5,0.9,1,1.4,1.5c2.3,2.4,4.8,4.5,7.5,6.4c6,4.1,12.5,7.5,19.3,9.9
	c3.9,1.4,8,2.5,12.2,3c0.2,0,0.3-0.1,0.4-0.2c0.1-0.1,0.2-0.2,0.2-0.3c0.4-2.8-0.2-6.1-1-8.8c-0.4-1.4-0.9-2.7-1.5-4
	c-0.3-0.6-0.6-1.2-1-1.8c7.2,4.1,14.9,7.2,22.9,9.4c5.7,1.5,11.5,2.5,17.4,2.9c0.2,0,0.4-0.1,0.5-0.2c0.4,0.2,1,0,1-0.6
	c-0.1-4.3-0.2-8.7-1.2-13c-1-4-2.8-7.6-5.2-10.9c-2.2-3-4.7-5.7-7.2-8.3c2.9,1.8,6,3.2,9.1,4.4c6.4,2.4,13.3,3.5,20.2,3.2
	c3.9-0.2,7.8-0.8,11.5-1.9c0.1,0,0.2-0.1,0.2-0.1c0.3-0.1,0.5-0.3,0.4-0.6c-0.4-9.2-5.2-17.3-11.3-24c-2.1-2.3-4.3-4.4-6.6-6.5
	c1.4,0.7,2.9,1.4,4.4,2c3.1,1.2,6.3,2.2,9.5,2.8c3.1,0.7,6.3,1.1,9.5,1.2c1.6,0.1,3.2,0.1,4.7,0c1.2,0,2.5-0.1,3.8-0.3
	c0.1,0,0.1,0,0.2,0c1-0.1,1.9-0.1,2.7-0.6C336.6,315.9,321.8,303.7,319.4,301.5z"/>
<path class="st4" d="M50.8,97.7c0,0,8.7-17.8,16.1-19.9c0,0,7.4,2.5,15.1,0.5c0,0-4.4,7.8-4.9,12.1C77,90.4,53,94.2,50.8,97.7z"/>
<circle cx="96.8" cy="70.3" r="4.7"/>
<circle class="st0" cx="98.4" cy="68.7" r="1.6"/>
<path class="st0" d="M66.4,80.7c-0.6,0.2-1.1,0.7-1.6,1c-0.5,0.4-1,0.8-1.5,1.2c-0.9,0.8-1.7,1.7-2.6,2.6c-0.4,0.4-0.8,0.9-1.2,1.3
	c-0.4,0.5-0.7,1-1.1,1.5c-0.8,1-1.5,2-2,3.1c-0.1,0.2,0.1,0.3,0.3,0.2c0.8-0.9,1.5-1.9,2.3-2.8c0.4-0.4,0.9-0.8,1.3-1.2
	c0.4-0.4,0.8-0.8,1.3-1.3c0.8-0.8,1.8-1.4,2.8-2.1c0.5-0.3,1-0.7,1.5-1c0.5-0.4,1.2-0.7,1.6-1.1C68,81.6,67.3,80.4,66.4,80.7z"/>
<path class="st5" d="M70.1,294.5c4.1,1.8,8.7,3.1,13.4,3.9c5.4,4,12.8,6.5,20.5,7c0.1-0.9-0.8-1.9-2-2.1c6.4,2.3,13.9,3,20.8,1.8
	c3.1-0.5,6.3-1.5,7.7-3.6c-5-0.1-10.1-0.7-15-1.6c1.9,0.1,3.9-0.2,5.5-1c-7.1-3.1-16.5-2.9-22.7-6.8c1.8-0.2,3.6-0.7,5.1-1.4
	c-1.2-3.4-6.3-5.1-10.9-6c-3.2-0.6-6.6-0.9-9.9-1.1c-3.6-0.1-6.2-0.6-4.8,2.4c-1.6,0.4-3.3,0.4-5,0.5c-1.6,0.2-7.8,1.3-8.6,2.5
	C62.7,291,68.4,293.7,70.1,294.5z"/>
<path class="st1" d="M171.1,159.9c10.3-14.3,15-31.8,20.7-48.5c5.7-16.7,13.4-33.7,27.6-44.2c7-5.1,15.1-8.4,23.3-11.2
	c16.5-5.7,33.5-9.9,50.5-13.9c-22.9,9.7-46,19.6-65.5,35c-2.6,2-5.2,5.9-2.8,8.1c-0.7,2.6-3.5,3.8-5.7,5.3c-2.2,1.5-4.2,4.4-2.8,6.6
	c-3.2,2-6.4,4.2-8.6,7.3c-2.2,3.1-3,7.4-1,10.6c-7.3,5.2-8.7,15.2-10.7,23.9c-1.8,7.8-4.6,15.3-8.7,22.2
	c-7.5,12.5-19.3,22.3-33,27.3c-13.3,4.8-27.3,4.7-40.8,1C136,188.9,157.9,178.2,171.1,159.9z"/>
<path class="st1" d="M108.9,163.6c-0.4,2.9-0.5,6,0.9,8.5c1.5-0.3,3-0.6,4.5-0.9c-3-12.8,3.1-25.8,9.6-37.2
	c3.9-6.7,16.1-23.1,12.9-31.2C127.5,122,111.7,142.2,108.9,163.6z"/>
<path class="st1" d="M173.4,272.3c50.3-9.3,103.9,0.5,147.5,27.2c-45.3-16.1-93-25.4-141.1-27.5c-0.5,0-1.1,0-1.4,0.4
	c-0.3,0.4,0.2,1.2,0.6,0.8"/>
<path class="st1" d="M223.1,287.1c30-0.9,60.2,11.4,81.1,32.9c-12.6-8.9-26.7-15.9-41.5-20.4c6,5.9,12.9,10.8,20.5,14.6
	c-5.8-3.7-12.6-5.4-19-7.8c-8.8-3.4-16.9-8.4-25.5-12.4c-8.6-4-17.9-7-27.3-6.1"/>
<path class="st1" d="M201.2,298.1c11.6,2.6,24.1,8.1,28.3,19.2c-7-2.2-14-4.4-21-6.5c2.9,6.2,5.6,12.6,8,19.1
	c-4.3,0.6-8.7-1.5-11.8-4.6s-5.2-7-7.2-10.9c0.9,5.1,1.8,10.2,2.7,15.4c-3.9,0.8-7.9-1.1-10.6-4c-2.7-2.8-4.4-6.5-6.1-10
	c0.5,2.3,0.7,4.7,0.6,7.1c-0.1,1.2-0.4,2.5-1.5,2.9c-1.4,0.5-2.6-1-3.3-2.2c-3-5.2-6-10.4-9-15.6c0.3,5.3-1,10.7-3.8,15.3
	c-3.4-4.4-5.9-9.5-7.3-14.9c-0.5,1.3-1,2.7-1.4,4c-0.2-3.9-0.4-7.8-0.6-11.7c0-0.5-0.1-1-0.4-1.3c-0.3-0.3-0.9-0.3-1.3-0.3
	c-2.6,0.1-5.3,0.2-7.9,0C164.7,294.2,183.8,294.2,201.2,298.1z"/>
<path class="st1" d="M85.7,85c2.3,1.2,4.9,2.3,6.3,4.5c1.9,2.8,1.3,6.7-0.7,9.4c-2,2.7-5,4.5-8.1,5.8c2.3-2.3,2.1-6.1,0.6-8.9
	c-1.5-2.8-4.1-4.9-6.6-6.9c-0.4-0.3-0.8-0.6-0.9-1.1c-0.2-0.6,0-1.2,0.2-1.8c0.8-2.1,2-4.4,4-5.4C82,82.5,83.6,83.9,85.7,85z"/>
<path class="st1" d="M20.7,210.1c-0.5,2.1,1.1,4.3,3.1,5.2s4.3,0.8,6.5,0.6c-0.6,3.1-0.6,6.4,0,9.5c-5.1-0.4-9.9-3.4-12.5-7.8
	c0.6,0.7-0.3,1.8-1.2,1.8c-0.9,0-1.6-0.7-2.3-1.4c-4.5-5-11.8-18.5-7.4-25.1C8.1,200.7,12.8,207.9,20.7,210.1z"/>
<path class="st1" d="M214.8,304.5c-4.6,0.8-9.3,0.7-13.8-0.3c0.8,1.2,1.3,2.6,1.5,4c-4.8-0.6-9.4-2.4-13.4-5.1
	c0.1,1.9-0.3,3.8-1.1,5.4c-4.1-1.2-7.9-3.7-10.6-7c0.2,1.2,0.1,2.4-0.3,3.5c-0.2,0.6-0.6,1.3-1.3,1.3c-0.4,0-0.7-0.2-1-0.4
	c-2.6-1.7-7-4.7-7.6-7.9c6.3-3,17.4-1.1,24.1-0.2c4.2,0.6,8.4,1.5,12.5,2.7C206.2,301.2,212.5,304.9,214.8,304.5z"/>
<path class="st1" d="M147.2,225.9c2.1-0.2,4.2-0.7,6.1,0c0.4,3.1,1.8,6,3.8,8.3c-3.5,1.1-7.5,0.2-10.2-2.1c5.5,4.7-5.1,6.5-8.2,5
	c-2.2-1-3.9-2.8-5.6-4.5c-0.1,1.2-1.7,1.5-2.8,1.3c-2.3-0.3-4.6-1.3-6.5-2.8c-0.7-0.6-1.3-1.7-0.7-2.2c0.3-0.2,0.6-0.2,1-0.2
	c1.7,0,3.4,0.3,5.1-0.1c1.7-0.4,3.3-1.6,3.4-3.4c2.8,1.7,7.2,2.1,8.9-1C143.1,225.6,145.1,226.1,147.2,225.9z"/>
</svg>
